<?xml version="1.0" encoding="UTF-8" standalone="no"?><svg xmlns="http://www.w3.org/2000/svg" xmlns:xlink="http://www.w3.org/1999/xlink" contentScriptType="application/ecmascript" contentStyleType="text/css" height="531px" preserveAspectRatio="none" style="width:635px;height:531px;background:#FFFFFF;" version="1.1" viewBox="0 0 635 531" width="635px" zoomAndPan="magnify"><defs><filter height="300%" id="f8b1zc52dx9xt" width="300%" x="-1" y="-1"><feGaussianBlur result="blurOut" stdDeviation="2.0"/><feColorMatrix in="blurOut" result="blurOut2" type="matrix" values="0 0 0 0 0 0 0 0 0 0 0 0 0 0 0 0 0 0 .4 0"/><feOffset dx="4.0" dy="4.0" in="blurOut2" result="blurOut3"/><feBlend in="SourceGraphic" in2="blurOut3" mode="normal"/></filter></defs><g><!--MD5=[c8375d0abf05781a4d00ac7db9cff037]
cluster host--><polygon fill="#FFFFFF" filter="url(#f8b1zc52dx9xt)" points="16,16,26,6,577,6,577,238.5,567,248.5,16,248.5,16,16" style="stroke:#000000;stroke-width:1.5;"/><line style="stroke:#000000;stroke-width:1.5;" x1="567" x2="577" y1="16" y2="6"/><line style="stroke:#000000;stroke-width:1.5;" x1="16" x2="567" y1="16" y2="16"/><line style="stroke:#000000;stroke-width:1.5;" x1="567" x2="567" y1="16" y2="248.5"/><text fill="#000000" font-family="sans-serif" font-size="14" font-weight="bold" lengthAdjust="spacing" textLength="37" x="274" y="31.9951">host</text><!--MD5=[1fe3c2018794fa8cf3927ff227b150ef]
cluster AlphaSOC--><path d="M254.3406,305.6768 C262.0362,292.2373 270.7299,290.8409 279.7865,304.3937 C284.7749,296.2839 293.6811,293.6489 299.1681,303.8664 C305.0037,291.5831 316.5332,290.594 322.8336,303.4284 C329.5929,292.5591 336.8817,294.5658 343.4788,303.5966 C347.603,292.9682 358.1242,291.0643 365.5377,299.8614 C370.5987,288.9366 379.9438,288.9785 387.3805,297.1431 C394.6442,288.5182 405.105,286.7093 409.8391,299.7636 C416.4266,289.505 423.7675,288.3661 432.0391,297.872 C439.6342,289.6704 447.9518,292.8326 451.9647,301.985 C460.4763,292.0027 467.4668,291.1797 474.5175,303.4645 C481.9561,292.9659 489.2908,289.9524 498.1154,302.0148 C505.073,293.3949 513.8519,291.1801 519.6887,303.187 C525.9722,294.4899 535.598,295.5499 540.7991,304.4831 C553.5536,295.7864 562.1137,297.8931 568,312.5 C569.1815,311.8846 569.9665,312.175 570.3347,313.4858 C580.8467,318.6525 585.1904,329.2182 573.1388,337.0679 C583.9082,342.8501 585.7997,355.3497 574.4081,362.2489 C583.9109,367.576 587.4719,377.0994 576.0576,384.012 C590.4837,391.8488 587.8978,401.0565 577.1822,409.9821 C587.7801,418.5418 586.5973,426.9975 574.9252,433.4118 C585.4366,441.78 586.1877,453.0574 571.8456,458.3573 C580.9719,464.5191 583.6411,473.8859 572.504,480.6462 C583.6531,496.6147 578.8679,505.1006 561,509.5 C562.2348,509.5736 562.5774,510.4781 561.8221,511.4088 C554.0505,520.7647 547.2421,521.8594 540.9699,509.9392 C535.3151,520.2258 527.0118,519.0967 520.452,510.9463 C515.2368,522.182 504.7167,521.5085 498.7606,511.7103 C492.5122,523.9998 482.3694,522.5419 475.2846,512.5932 C469.5792,523.2071 461.3758,522.7259 454.1854,514.2331 C445.2287,524.119 435.9673,522.4104 430.2297,510.6676 C425.3472,519.2685 416.5653,519.5267 411.0544,511.3874 C403.8235,523.0725 396.8078,521.9311 389.2805,511.6816 C382.4729,521.9196 374.5987,521.8999 367.4871,512.0108 C358.9233,522.0271 351.7466,523.0235 344.4411,510.712 C338.2004,522.3872 329.4879,523.6875 320.4204,513.8716 C314.9623,524.8201 304.3169,524.803 298.83,513.9 C291.1942,522.2648 283.1976,523.0932 278.2692,511.1578 C266.1723,522.0777 251.201,520.0975 247,502.5 C248.5762,501.9461 249.6368,502.1698 249.6257,504.1468 C239.2596,498.9445 237.5026,488.039 248.686,481.9254 C235.93,475.9712 234.8961,465.6997 246.9998,457.994 C234.0952,452.3292 235.1562,444.2377 243.6628,435.4094 C229.6854,427.8247 230.1113,416.6203 242.3693,407.8062 C234.1314,400.2178 233.932,390.6363 245.5519,385.9379 C232.8939,378.2245 233.1833,367.5457 246.9011,361.2751 C237.3897,354.1679 235.5665,346.7659 246.8091,339.5707 C234.8396,328.1144 234.4626,310.3065 254,305.5 C254.1861,305.4091 254.3128,305.4627 254.3406,305.6768 " fill="#FFFFFF" filter="url(#f8b1zc52dx9xt)" style="stroke:#000000;stroke-width:1.5;"/><text fill="#000000" font-family="sans-serif" font-size="14" font-weight="bold" lengthAdjust="spacing" textLength="78" x="368.5" y="323.4951">AlphaSOC</text><!--MD5=[3639d00dad275efb284e1a907fd6726c]
entity intf--><ellipse cx="41" cy="69" fill="#FEFECE" filter="url(#f8b1zc52dx9xt)" rx="8" ry="8" style="stroke:#A80036;stroke-width:1.5;"/><text fill="#000000" font-family="sans-serif" font-size="14" lengthAdjust="spacing" textLength="26" x="28" y="98.9951">intf</text><!--MD5=[569c6c6df7c247605d7b895d5eeda4e7]
entity Packetbeat--><rect fill="#FEFECE" filter="url(#f8b1zc52dx9xt)" height="46.2969" style="stroke:#A80036;stroke-width:1.5;" width="124" x="190" y="46"/><rect fill="#FEFECE" height="10" style="stroke:#A80036;stroke-width:1.5;" width="15" x="294" y="51"/><rect fill="#FEFECE" height="2" style="stroke:#A80036;stroke-width:1.5;" width="4" x="292" y="53"/><rect fill="#FEFECE" height="2" style="stroke:#A80036;stroke-width:1.5;" width="4" x="292" y="57"/><text fill="#000000" font-family="sans-serif" font-size="14" lengthAdjust="spacing" textLength="84" x="205" y="78.9951">Packetbeat</text><!--MD5=[783dc9e3eeef317a9da1c323dfb778fc]
entity Elasticsearch--><rect fill="#FEFECE" filter="url(#f8b1zc52dx9xt)" height="46.2969" style="stroke:#A80036;stroke-width:1.5;" width="134" x="427" y="46"/><rect fill="#FEFECE" height="10" style="stroke:#A80036;stroke-width:1.5;" width="15" x="541" y="51"/><rect fill="#FEFECE" height="2" style="stroke:#A80036;stroke-width:1.5;" width="4" x="539" y="53"/><rect fill="#FEFECE" height="2" style="stroke:#A80036;stroke-width:1.5;" width="4" x="539" y="57"/><text fill="#000000" font-family="sans-serif" font-size="14" lengthAdjust="spacing" textLength="94" x="442" y="78.9951">Elasticsearch</text><!--MD5=[05e568af73daee98f7e87ff8f9f15de0]
entity NFR--><rect fill="#FEFECE" filter="url(#f8b1zc52dx9xt)" height="46.2969" style="stroke:#A80036;stroke-width:1.5;" width="68" x="300" y="186.5"/><rect fill="#FEFECE" height="10" style="stroke:#A80036;stroke-width:1.5;" width="15" x="348" y="191.5"/><rect fill="#FEFECE" height="2" style="stroke:#A80036;stroke-width:1.5;" width="4" x="346" y="193.5"/><rect fill="#FEFECE" height="2" style="stroke:#A80036;stroke-width:1.5;" width="4" x="346" y="197.5"/><text fill="#000000" font-family="sans-serif" font-size="14" lengthAdjust="spacing" textLength="28" x="315" y="219.4951">NFR</text><!--MD5=[fb51261825f4f51b8a6854ceb9d874db]
entity Analytics Engine--><rect fill="#FEFECE" filter="url(#f8b1zc52dx9xt)" height="46.2969" style="stroke:#A80036;stroke-width:1.5;" width="158" x="255" y="332.5"/><rect fill="#FEFECE" height="10" style="stroke:#A80036;stroke-width:1.5;" width="15" x="393" y="337.5"/><rect fill="#FEFECE" height="2" style="stroke:#A80036;stroke-width:1.5;" width="4" x="391" y="339.5"/><rect fill="#FEFECE" height="2" style="stroke:#A80036;stroke-width:1.5;" width="4" x="391" y="343.5"/><text fill="#000000" font-family="sans-serif" font-size="14" lengthAdjust="spacing" textLength="118" x="270" y="365.4951">Analytics Engine</text><!--MD5=[5183cb2edb5cf492c7a53635436e61b6]
entity Console--><rect fill="#FEFECE" filter="url(#f8b1zc52dx9xt)" height="46.2969" style="stroke:#A80036;stroke-width:1.5;" width="97" x="417.5" y="455.5"/><rect fill="#FEFECE" height="10" style="stroke:#A80036;stroke-width:1.5;" width="15" x="494.5" y="460.5"/><rect fill="#FEFECE" height="2" style="stroke:#A80036;stroke-width:1.5;" width="4" x="492.5" y="462.5"/><rect fill="#FEFECE" height="2" style="stroke:#A80036;stroke-width:1.5;" width="4" x="492.5" y="466.5"/><text fill="#000000" font-family="sans-serif" font-size="14" lengthAdjust="spacing" textLength="57" x="432.5" y="488.4951">Console</text><!--MD5=[fee662a292a0353a69bd162820bae93b]
entity User--><ellipse cx="613" cy="38" fill="#FEFECE" filter="url(#f8b1zc52dx9xt)" rx="8" ry="8" style="stroke:#A80036;stroke-width:1.5;"/><path d="M613,46 L613,73 M600,54 L626,54 M613,73 L600,88 M613,73 L626,88 " fill="none" filter="url(#f8b1zc52dx9xt)" style="stroke:#A80036;stroke-width:1.5;"/><text fill="#000000" font-family="sans-serif" font-size="14" lengthAdjust="spacing" textLength="31" x="597.5" y="106.4951">User</text><!--MD5=[37ff22121bb708685240a02a82d83e18]
reverse link intf to Packetbeat--><path d="M55.3528,69 C82.5807,69 143.191,69 189.977,69 " fill="none" id="intf-backto-Packetbeat" style="stroke:#A80036;stroke-width:1.0;"/><polygon fill="#A80036" points="50.0664,69,59.0664,73,55.0664,69,59.0664,65,50.0664,69" style="stroke:#A80036;stroke-width:1.0;"/><text fill="#000000" font-family="sans-serif" font-size="13" lengthAdjust="spacing" textLength="103" x="68.5" y="62.0669">capture packets</text><!--MD5=[d808f4221f08843b44badf53b0e7f5f5]
link Packetbeat to Elasticsearch--><path d="M314.007,69 C346.842,69 387.351,69 421.619,69 " fill="none" id="Packetbeat-to-Elasticsearch" style="stroke:#A80036;stroke-width:1.0;"/><polygon fill="#A80036" points="426.628,69,417.628,65,421.628,69,417.628,73,426.628,69" style="stroke:#A80036;stroke-width:1.0;"/><text fill="#000000" font-family="sans-serif" font-size="13" lengthAdjust="spacing" textLength="76" x="332.5" y="62.0669">for indexing</text><!--MD5=[7fe2228093337f65a8e7ec98b51f790f]
link NFR to Elasticsearch--><path d="M368.145,189.693 C383.448,180.564 401.315,168.896 416,156.5 C437.548,138.31 458.766,114.27 473.619,96.15 " fill="none" id="NFR-to-Elasticsearch" style="stroke:#A80036;stroke-width:1.0;"/><polygon fill="#A80036" points="476.877,92.146,468.0942,96.6027,473.7214,96.0244,474.2997,101.6516,476.877,92.146" style="stroke:#A80036;stroke-width:1.0;"/><text fill="#000000" font-family="sans-serif" font-size="13" lengthAdjust="spacing" textLength="104" x="434" y="152.5669">query telemetry</text><!--MD5=[17f1be4eec5df0494538f4ddea2051e9]
link Elasticsearch to NFR--><path d="M426.754,82.898 C370.814,95.156 297.595,115.286 280,139.5 C269.119,154.475 280.783,170.804 296.019,183.816 " fill="none" id="Elasticsearch-to-NFR" style="stroke:#A80036;stroke-width:1.0;"/><polygon fill="#A80036" points="299.957,187.05,295.538,178.2482,296.0921,183.8778,290.4625,184.432,299.957,187.05" style="stroke:#A80036;stroke-width:1.0;"/><text fill="#000000" font-family="sans-serif" font-size="13" lengthAdjust="spacing" textLength="126" x="281" y="152.5669">telemetry response</text><!--MD5=[923cbae91447ce1fc981cb47f00d55b3]
link User to Console--><path d="M613.97,109.75 C614.207,169.768 609.835,286.303 577,378.5 C568.686,401.845 564.5,407.954 547,425.5 C536.91,435.6162 524.525,444.7755 512.503,452.4886 " fill="none" id="User-to-Console" style="stroke:#A80036;stroke-width:1.0;"/><polygon fill="#A80036" points="508.095,455.2639,517.8423,453.8531,512.3261,452.5997,513.5795,447.0834,508.095,455.2639" style="stroke:#A80036;stroke-width:1.0;"/><!--MD5=[69d10101b316157a18b6b43605ddfefc]
link NFR to Analytics Engine--><path d="M334,232.684 C334,257.979 334,299.364 334,326.768 " fill="none" id="NFR-to-Analytics Engine" style="stroke:#A80036;stroke-width:1.0;"/><polygon fill="#A80036" points="334,332.053,338,323.053,334,327.053,330,323.053,334,332.053" style="stroke:#A80036;stroke-width:1.0;"/><text fill="#000000" font-family="sans-serif" font-size="13" lengthAdjust="spacing" textLength="109" x="335" y="277.5669">send for analysis</text><!--MD5=[08f5ee4f0ad8204cc068f34c7dc5bc56]
link Analytics Engine to Analytics Engine--><path d="M413.118,344.394 C433.061,345.148 448,348.85 448,355.5 C448,361.579 435.518,365.194 418.142,366.346 " fill="none" id="Analytics Engine-to-Analytics Engine" style="stroke:#A80036;stroke-width:1.0;"/><polygon fill="#A80036" points="413.118,366.606,422.3118,370.1378,418.1114,366.3488,421.9004,362.1484,413.118,366.606" style="stroke:#A80036;stroke-width:1.0;"/><text fill="#000000" font-family="sans-serif" font-size="13" lengthAdjust="spacing" textLength="117" x="454" y="360.0669">analyze telemetry</text><!--MD5=[258dd059f281fe1c87d2268f8f6cb81e]
link Analytics Engine to Console--><path d="M358.211,378.693 C380.818,399.417 414.539,430.327 438.23,452.044 " fill="none" id="Analytics Engine-to-Console" style="stroke:#A80036;stroke-width:1.0;"/><polygon fill="#A80036" points="441.943,455.4474,438.0113,446.4173,438.2572,452.0688,432.6057,452.3147,441.943,455.4474" style="stroke:#A80036;stroke-width:1.0;"/><text fill="#000000" font-family="sans-serif" font-size="13" lengthAdjust="spacing" textLength="129" x="409" y="421.5669">generate detections</text><!--MD5=[193647457a2b73abc07e3ae6b0779478]
@startuml
node "host" {
  () "intf" <- [Packetbeat] : capture packets
  [Packetbeat] -> [Elasticsearch] : for indexing
  [NFR] -> [Elasticsearch] : query telemetry
  [Elasticsearch] - -> [NFR] : telemetry response
}

cloud "AlphaSOC" {
  [Analytics Engine]
  [Console]
}

:User: - - - -> [Console]

[NFR] - -> [Analytics Engine] : send for analysis
[Analytics Engine] - -> [Analytics Engine] : analyze telemetry
[Analytics Engine] - -> [Console] : generate detections
@enduml

PlantUML version 1.2021.17beta4(Unknown compile time)
(GPL source distribution)
Java Runtime: Java(TM) SE Runtime Environment
JVM: Java HotSpot(TM) 64-Bit Server VM
Default Encoding: UTF-8
Language: en
Country: US
--></g></svg>